<?xml version="1.0" encoding="utf-8"?>
<!-- Generator: Adobe Illustrator 21.1.0, SVG Export Plug-In . SVG Version: 6.00 Build 0)  -->
<svg version="1.1" id="Capa_1" xmlns="http://www.w3.org/2000/svg" xmlns:xlink="http://www.w3.org/1999/xlink" x="0px" y="0px"
	 viewBox="0 0 512 512" style="enable-background:new 0 0 512 512;" xml:space="preserve">
<style type="text/css">
	.st0{fill:#435469;}
</style>
<g>
	<path class="st0" d="M34.3,384.5c22.9,39.2,53.9,70.3,93.2,93.2C166.7,500.6,209.5,512,256,512c46.4,0,89.3-11.4,128.5-34.3
		c39.2-22.9,70.3-53.9,93.2-93.2C500.6,345.3,512,302.4,512,256c0-46.4-11.4-89.3-34.3-128.5c-22.9-39.2-53.9-70.3-93.2-93.2
		C345.3,11.4,302.4,0,256,0s-89.3,11.4-128.5,34.3c-39.2,22.9-70.3,53.9-93.2,93.2C11.4,166.7,0,209.6,0,256
		C0,302.4,11.4,345.3,34.3,384.5z M121.7,241L273,89.7c4.2-4.2,9.2-6.3,15-6.3c5.8,0,10.8,2.1,15,6.3l34,34c4.2,4.2,6.3,9.2,6.3,15
		c0,5.8-2.1,10.8-6.3,15L234.7,256L337,358.3c4.2,4.2,6.3,9.2,6.3,15c0,5.8-2.1,10.8-6.3,15l-34,34c-4.2,4.2-9.2,6.3-15,6.3
		c-5.8,0-10.8-2.1-15-6.3L121.7,271c-4.2-4.2-6.3-9.2-6.3-15C115.3,250.2,117.4,245.2,121.7,241z"/>
</g>
</svg>
